<svg width="51" height="50" viewBox="0 0 51 50" fill="none" xmlns="http://www.w3.org/2000/svg">
<path d="M30.5797 31.2375H20.8159V13.69H30.5797V31.2375Z" fill="#6C6BBD"/>
<path d="M21.4424 22.4675C21.4407 20.7777 21.8235 19.1095 22.5618 17.5895C23.3 16.0694 24.3744 14.7372 25.7037 13.6938C24.0574 12.3994 22.0802 11.5944 19.998 11.3707C17.9158 11.1471 15.8127 11.5137 13.9291 12.4289C12.0455 13.344 10.4574 14.7707 9.34631 16.5458C8.23522 18.3208 7.646 20.3727 7.646 22.4669C7.646 24.561 8.23522 26.6129 9.34631 28.388C10.4574 30.1631 12.0455 31.5898 13.9291 32.5049C15.8127 33.42 17.9158 33.7867 19.998 33.563C22.0802 33.3394 24.0574 32.5343 25.7037 31.24C24.3746 30.1967 23.3003 28.8647 22.562 27.3449C21.8238 25.825 21.4409 24.1572 21.4424 22.4675Z" fill="#EB001B"/>
<path d="M43.7484 22.4675C43.7476 24.561 43.158 26.6121 42.0468 28.3864C40.9356 30.1607 39.3477 31.5866 37.4645 32.5012C35.5814 33.4158 33.4789 33.7822 31.3974 33.5585C29.3158 33.3348 27.3392 32.5301 25.6934 31.2363C27.0216 30.192 28.0954 28.8597 28.8337 27.34C29.572 25.8203 29.9557 24.1527 29.9557 22.4631C29.9557 20.7736 29.572 19.106 28.8337 17.5863C28.0954 16.0666 27.0216 14.7343 25.6934 13.69C27.3399 12.3962 29.3173 11.5918 31.3994 11.3688C33.4816 11.1457 35.5845 11.5129 37.4678 12.4285C39.3511 13.344 40.9388 14.771 42.0494 16.5463C43.16 18.3215 43.7488 20.3735 43.7484 22.4675Z" fill="#0099DF"/>
<path d="M33.8723 36.1912C34.0299 36.1936 34.186 36.2232 34.3335 36.2787L34.1348 36.8862C34.0068 36.8354 33.87 36.8103 33.7323 36.8125C33.3098 36.8125 33.0998 37.0837 33.0998 37.5737V39.2287H32.4585V36.265H33.0973V36.625C33.1765 36.4892 33.2909 36.3772 33.4283 36.3009C33.5658 36.2245 33.7213 36.1867 33.8785 36.1912H33.8723ZM31.4898 36.855H30.4373V38.1937C30.4373 38.49 30.5423 38.6937 30.8648 38.6937C31.0659 38.6872 31.262 38.6295 31.4348 38.5262L31.621 39.0775C31.3796 39.2281 31.1006 39.3078 30.816 39.3075C30.0535 39.3075 29.7873 38.8987 29.7873 38.21V36.855H29.1835V36.2662H29.7848V35.3675H30.436V36.2662H31.4885V36.855H31.4898ZM23.2398 37.48C23.2511 37.281 23.3398 37.0944 23.487 36.9601C23.6342 36.8258 23.8281 36.7544 24.0273 36.7612C24.2219 36.7576 24.4101 36.8311 24.5506 36.9658C24.6912 37.1005 24.7727 37.2854 24.7773 37.48H23.2398ZM25.4473 37.74C25.466 37.5435 25.4436 37.3453 25.3815 37.158C25.3194 36.9707 25.2189 36.7984 25.0865 36.6521C24.954 36.5057 24.7926 36.3886 24.6123 36.3082C24.4321 36.2278 24.2371 36.1858 24.0398 36.185C23.6339 36.2008 23.2503 36.3746 22.9708 36.6693C22.6914 36.9641 22.5382 37.3564 22.5441 37.7626C22.55 38.1687 22.7144 38.5565 23.0023 38.843C23.2901 39.1296 23.6786 39.2922 24.0848 39.2962C24.5266 39.3115 24.9586 39.1638 25.2985 38.8812L24.9823 38.4037C24.7377 38.6001 24.4346 38.7092 24.121 38.7137C23.9079 38.7314 23.6963 38.6655 23.5309 38.5299C23.3656 38.3944 23.2593 38.1999 23.2348 37.9875H25.4348C25.4398 37.9137 25.446 37.8337 25.446 37.7475L25.4473 37.74ZM28.2798 37.015C27.9986 36.8544 27.681 36.7684 27.3573 36.765C27.0035 36.765 26.7935 36.89 26.7935 37.1125C26.7935 37.335 27.016 37.3625 27.2935 37.4037L27.5973 37.4462C28.2423 37.54 28.6323 37.8125 28.6323 38.3325C28.6323 38.8962 28.1323 39.3 27.281 39.3C26.8233 39.3123 26.3737 39.1774 25.9985 38.915L26.3023 38.415C26.587 38.6258 26.9343 38.735 27.2885 38.725C27.7285 38.725 27.9635 38.6 27.9635 38.3662C27.9635 38.1987 27.796 38.105 27.4435 38.0562L27.1398 38.0137C26.476 37.92 26.116 37.6237 26.116 37.1387C26.116 36.55 26.5998 36.19 27.3498 36.19C27.7737 36.1753 28.1929 36.2829 28.5573 36.5L28.2785 37.02L28.2798 37.015ZM36.2298 36.7962C36.1013 36.7943 35.9738 36.8181 35.8548 36.8662C35.7432 36.9119 35.6421 36.9797 35.5577 37.0657C35.4732 37.1517 35.4072 37.2539 35.3635 37.3662C35.2697 37.6156 35.2697 37.8906 35.3635 38.14C35.407 38.2522 35.4729 38.3544 35.5571 38.4404C35.6414 38.5263 35.7422 38.5942 35.8535 38.64C36.0914 38.7332 36.3557 38.7332 36.5935 38.64C36.7067 38.5954 36.8095 38.528 36.8955 38.442C36.9816 38.356 37.049 38.2532 37.0935 38.14C37.1873 37.8906 37.1873 37.6156 37.0935 37.3662C37.049 37.253 36.9816 37.1502 36.8955 37.0642C36.8095 36.9782 36.7067 36.9108 36.5935 36.8662C36.4743 36.8188 36.3468 36.7955 36.2185 36.7975L36.2298 36.7962ZM36.2298 36.185C36.4488 36.1842 36.6659 36.2267 36.8685 36.31C37.0573 36.3836 37.2293 36.4944 37.3743 36.6359C37.5192 36.7775 37.6342 36.9468 37.7123 37.1337C37.8754 37.5344 37.8754 37.983 37.7123 38.3837C37.6342 38.5709 37.5193 38.7403 37.3743 38.8821C37.2294 39.0238 37.0573 39.1349 36.8685 39.2087C36.4574 39.3671 36.0021 39.3671 35.591 39.2087C35.4044 39.1324 35.2346 39.0203 35.091 38.8787C34.9473 38.7359 34.8334 38.566 34.756 38.3787C34.5946 37.9803 34.5946 37.5347 34.756 37.1362C34.8339 36.9496 34.9483 36.7805 35.0926 36.6388C35.2369 36.4971 35.408 36.3857 35.596 36.3112C35.7987 36.2283 36.0157 36.1859 36.2348 36.1862L36.2298 36.185ZM19.4798 37.74C19.4898 37.5651 19.5508 37.3969 19.6552 37.2562C19.7597 37.1156 19.903 37.0085 20.0675 36.9483C20.2321 36.8882 20.4107 36.8775 20.5812 36.9176C20.7518 36.9577 20.9069 37.0468 21.0274 37.174C21.1479 37.3012 21.2285 37.4609 21.2593 37.6334C21.2901 37.8059 21.2698 37.9836 21.2008 38.1446C21.1318 38.3057 21.0172 38.443 20.8711 38.5397C20.7249 38.6364 20.5537 38.6882 20.3785 38.6887C20.2559 38.6912 20.1341 38.6683 20.0208 38.6213C19.9074 38.5744 19.8051 38.5046 19.72 38.4162C19.635 38.3277 19.5693 38.2227 19.5268 38.1076C19.4844 37.9925 19.4662 37.8699 19.4735 37.7475L19.4798 37.74ZM21.8785 37.74V36.2662H21.2348V36.625C21.1246 36.4832 20.9822 36.3699 20.8193 36.2945C20.6564 36.219 20.4779 36.1836 20.2985 36.1912C19.8991 36.2109 19.5226 36.3833 19.2469 36.6729C18.9712 36.9625 18.8174 37.347 18.8174 37.7469C18.8174 38.1467 18.9712 38.5312 19.2469 38.8208C19.5226 39.1104 19.8991 39.2829 20.2985 39.3025C20.4779 39.3101 20.6564 39.2747 20.8193 39.1993C20.9822 39.1238 21.1246 39.0105 21.2348 38.8687V39.2287H21.8785V37.74ZM18.2398 39.2287V37.37C18.2509 37.2136 18.2285 37.0567 18.1742 36.9097C18.1198 36.7626 18.0347 36.6289 17.9246 36.5173C17.8145 36.4058 17.6818 36.319 17.5355 36.2627C17.3891 36.2065 17.2325 36.1821 17.076 36.1912C16.8709 36.1778 16.666 36.2196 16.4826 36.3124C16.2992 36.4052 16.1441 36.5455 16.0335 36.7187C15.9327 36.5508 15.7885 36.4131 15.616 36.3203C15.4435 36.2275 15.2492 36.1829 15.0535 36.1912C14.8831 36.1827 14.7135 36.2188 14.5613 36.296C14.4092 36.3732 14.2798 36.4887 14.186 36.6312V36.2662H13.541V39.2287H14.1923V37.585C14.1783 37.4837 14.1869 37.3805 14.2175 37.2829C14.248 37.1852 14.2998 37.0956 14.3691 37.0203C14.4384 36.9451 14.5235 36.8861 14.6182 36.8475C14.713 36.809 14.8151 36.7919 14.9173 36.7975C15.3448 36.7975 15.5623 37.0762 15.5623 37.5787V39.2275H16.2085V37.585C16.1954 37.4838 16.2047 37.381 16.2356 37.2838C16.2665 37.1866 16.3183 37.0973 16.3874 37.0222C16.4565 36.9472 16.5412 36.8882 16.6356 36.8493C16.7299 36.8105 16.8316 36.7928 16.9335 36.7975C17.3748 36.7975 17.5848 37.0762 17.5848 37.5787V39.2275H18.2348L18.2398 39.2287Z" fill="#231F20"/>
</svg>
