<svg width="38" height="30" viewBox="0 0 38 30" fill="none" xmlns="http://www.w3.org/2000/svg">
<path d="M7.45108 29.458V27.5466C7.46213 27.3866 7.43947 27.226 7.38456 27.0752C7.32965 26.9245 7.24371 26.787 7.1323 26.6715C7.02183 26.5566 6.88772 26.467 6.73922 26.4089C6.59073 26.3508 6.4314 26.3257 6.27224 26.3353C6.06462 26.3221 5.85731 26.3655 5.67239 26.4608C5.48747 26.5561 5.33187 26.6998 5.22216 26.8766C5.12221 26.7052 4.97748 26.5642 4.80349 26.4689C4.6295 26.3735 4.43283 26.3273 4.23459 26.3353C4.0618 26.327 3.8899 26.3645 3.73624 26.4439C3.58259 26.5234 3.45264 26.642 3.35952 26.7878V26.4128H2.70947V29.4593H3.36577V27.7816C3.35172 27.6778 3.36043 27.5721 3.39129 27.4719C3.42216 27.3718 3.47445 27.2795 3.54454 27.2016C3.61368 27.1245 3.69918 27.0639 3.79478 27.0241C3.89038 26.9843 3.99366 26.9663 4.09708 26.9716C4.52836 26.9716 4.74713 27.2578 4.74713 27.7741V29.4693H5.40343V27.7816C5.39016 27.6781 5.39938 27.5729 5.43044 27.4732C5.46151 27.3736 5.51369 27.2818 5.58344 27.2041C5.6525 27.1272 5.73777 27.0665 5.8331 27.0265C5.92844 26.9865 6.03145 26.9682 6.13473 26.9728C6.57851 26.9728 6.79103 27.2591 6.79103 27.7754V29.4705L7.44733 29.458H7.45108ZM17.1618 26.4115H16.0917V25.4877H15.4354V26.4115H14.8416V27.0128H15.4479V28.4142C15.4479 29.1217 15.7167 29.5393 16.4855 29.5393C16.7734 29.5401 17.0555 29.4581 17.2981 29.303L17.1106 28.7354C16.9368 28.841 16.7387 28.9 16.5355 28.9067C16.223 28.9067 16.1042 28.7042 16.1042 28.3979V27.0128H17.1668V26.4078L17.1618 26.4115ZM22.706 26.3353C22.5466 26.3307 22.389 26.3697 22.2502 26.4481C22.1114 26.5266 21.9967 26.6414 21.9184 26.7803V26.4115H21.2734V29.458H21.9234V27.7504C21.9234 27.2503 22.1359 26.9666 22.5485 26.9666C22.6876 26.9648 22.8257 26.9907 22.9547 27.0428L23.1548 26.4053C23.0065 26.3513 22.85 26.3234 22.6922 26.3228L22.706 26.3353ZM14.3241 26.654C13.9575 26.4313 13.5339 26.3205 13.1053 26.3353C12.3552 26.3353 11.8552 26.7103 11.8552 27.3103C11.8552 27.8104 12.2177 28.1129 12.8865 28.2092L13.199 28.2542C13.5553 28.3054 13.7241 28.4004 13.7241 28.5729C13.7241 28.8092 13.4865 28.948 13.0427 28.948C12.6848 28.9581 12.3342 28.8457 12.0489 28.6292L11.7364 29.1455C12.1131 29.4146 12.5674 29.5533 13.0302 29.5405C13.8928 29.5405 14.3929 29.1267 14.3929 28.5404C14.3929 27.9541 13.9991 27.7254 13.349 27.6291L13.0365 27.5841C12.7552 27.5454 12.5365 27.4879 12.5365 27.2841C12.5365 27.0803 12.749 26.9266 13.1053 26.9266C13.4352 26.9303 13.7585 27.0203 14.0428 27.1878L14.3303 26.6528L14.3241 26.654ZM31.7354 26.3353C31.576 26.3307 31.4185 26.3697 31.2797 26.4481C31.1409 26.5266 31.0261 26.6414 30.9478 26.7803V26.4115H30.304V29.458H30.9541V27.7504C30.9541 27.2503 31.1666 26.9666 31.5791 26.9666C31.7183 26.9648 31.8564 26.9907 31.9854 27.0428L32.1854 26.4053C32.0372 26.3513 31.8807 26.3234 31.7229 26.3228L31.7354 26.3353ZM23.3598 27.9291C23.3517 28.1423 23.3877 28.3549 23.4653 28.5536C23.5429 28.7523 23.6606 28.9329 23.8111 29.0842C23.9597 29.2339 24.1384 29.3502 24.3354 29.4257C24.5323 29.5011 24.7431 29.5338 24.9536 29.5218C25.3454 29.5417 25.7301 29.4121 26.03 29.1592L25.7175 28.6229C25.4939 28.7971 25.2195 28.8933 24.9361 28.8967C24.6946 28.8722 24.4707 28.7589 24.3079 28.5788C24.1451 28.3986 24.0549 28.1645 24.0549 27.9216C24.0549 27.6788 24.1451 27.4447 24.3079 27.2645C24.4707 27.0844 24.6946 26.9711 24.9361 26.9466C25.2195 26.9501 25.4939 27.0462 25.7175 27.2203L26.03 26.6853C25.7305 26.4315 25.3456 26.3014 24.9536 26.3215C24.7431 26.3096 24.5324 26.3424 24.3355 26.4178C24.1385 26.4933 23.9598 26.6095 23.8111 26.7591C23.6605 26.9105 23.5427 27.0913 23.465 27.2902C23.3874 27.4892 23.3516 27.702 23.3598 27.9154V27.9279V27.9291ZM29.4477 27.9291V26.4115H28.7977V26.7866C28.6887 26.6423 28.5467 26.5265 28.3835 26.4488C28.2203 26.3711 28.0407 26.3339 27.8601 26.3403C27.4453 26.3519 27.0513 26.5248 26.762 26.8224C26.4727 27.1199 26.3109 27.5185 26.3109 27.9335C26.3109 28.3485 26.4727 28.7471 26.762 29.0447C27.0513 29.3422 27.4453 29.5151 27.8601 29.5268C28.0407 29.5332 28.2203 29.4959 28.3835 29.4182C28.5467 29.3406 28.6887 29.2247 28.7977 29.0805V29.4555H29.4477V27.9279V27.9291ZM27.9639 27.0616C28.2026 27.0733 28.4275 27.1773 28.5909 27.3517C28.7544 27.5261 28.8437 27.7572 28.84 27.9962C28.8362 28.2352 28.7398 28.4634 28.5709 28.6326C28.4021 28.8018 28.1741 28.8987 27.9351 28.903C27.8109 28.9044 27.6877 28.8798 27.5736 28.8307C27.4595 28.7816 27.357 28.7091 27.2726 28.6179C27.1871 28.5255 27.1215 28.4167 27.0795 28.298C27.0376 28.1794 27.0204 28.0534 27.0288 27.9279C27.0402 27.6898 27.1445 27.4657 27.3193 27.3037C27.4942 27.1417 27.7256 27.0548 27.9639 27.0616ZM19.1845 26.3353C18.7688 26.3511 18.3758 26.5289 18.0894 26.8305C17.8029 27.1322 17.6458 27.5339 17.6515 27.9499C17.6572 28.3658 17.8253 28.763 18.1199 29.0567C18.4145 29.3504 18.8123 29.5173 19.2282 29.5218C19.6789 29.5448 20.1218 29.3971 20.4683 29.108L20.1558 28.6179C19.9105 28.8193 19.6043 28.9316 19.287 28.9367C19.0694 28.9538 18.8538 28.8847 18.6867 28.7445C18.5195 28.6042 18.4141 28.4039 18.3931 28.1867H20.6121V27.9366C20.6339 27.7367 20.6136 27.5344 20.5524 27.3429C20.4912 27.1513 20.3905 26.9747 20.2568 26.8245C20.123 26.6742 19.9593 26.5538 19.7761 26.4708C19.5929 26.3878 19.3943 26.3442 19.1932 26.3428H19.1832L19.1845 26.3353ZM19.1845 26.9278C19.2819 26.9259 19.3788 26.9436 19.4694 26.9796C19.56 27.0157 19.6425 27.0695 19.712 27.1378C19.8543 27.2779 19.936 27.4682 19.9395 27.6679H18.3769C18.386 27.4652 18.4742 27.2741 18.6227 27.1357C18.7711 26.9973 18.9679 26.9227 19.1707 26.9278H19.1832H19.1845ZM35.4707 27.9354V25.1852H34.8456V26.7791C34.7367 26.6348 34.5946 26.519 34.4314 26.4413C34.2682 26.3636 34.0887 26.3264 33.9081 26.3328C33.4932 26.3444 33.0993 26.5173 32.81 26.8149C32.5207 27.1124 32.3588 27.511 32.3588 27.926C32.3588 28.341 32.5207 28.7396 32.81 29.0372C33.0993 29.3347 33.4932 29.5076 33.9081 29.5193C34.0887 29.5257 34.2682 29.4884 34.4314 29.4107C34.5946 29.3331 34.7367 29.2172 34.8456 29.073V29.448H35.4707V27.9341V27.9354ZM34.0018 27.0678C34.238 27.0832 34.4593 27.1887 34.6199 27.3626C34.7805 27.5365 34.8681 27.7655 34.8645 28.0022C34.861 28.2389 34.7666 28.4652 34.6009 28.6342C34.4352 28.8033 34.2109 28.9022 33.9743 28.9105C33.85 28.9117 33.7268 28.8869 33.6127 28.8376C33.4986 28.7883 33.396 28.7156 33.3118 28.6242C33.2252 28.5323 33.1584 28.4237 33.1154 28.305C33.0724 28.1863 33.0541 28.0601 33.0618 27.9341C33.0734 27.696 33.1781 27.472 33.3531 27.3103C33.5282 27.1485 33.7598 27.0619 33.9981 27.0691L34.0018 27.0678ZM11.1176 27.9354V26.4115H10.4676V26.7866C10.3586 26.6423 10.2165 26.5265 10.0533 26.4488C9.89013 26.3711 9.71062 26.3339 9.52999 26.3403C9.11516 26.3519 8.72122 26.5248 8.43191 26.8224C8.14261 27.1199 7.98075 27.5185 7.98075 27.9335C7.98075 28.3485 8.14261 28.7471 8.43191 29.0447C8.72122 29.3422 9.11516 29.5151 9.52999 29.5268C9.71062 29.5332 9.89013 29.4959 10.0533 29.4182C10.2165 29.3406 10.3586 29.2247 10.4676 29.0805V29.4555H11.1176V27.9341V27.9354ZM8.69867 27.9354C8.71251 27.7605 8.77695 27.5934 8.88413 27.4545C8.99131 27.3156 9.1366 27.2109 9.30227 27.1532C9.46794 27.0955 9.64683 27.0872 9.81712 27.1294C9.98741 27.1716 10.1417 27.2625 10.2613 27.3909C10.3808 27.5193 10.4604 27.6797 10.4903 27.8526C10.5202 28.0255 10.4991 28.2033 10.4297 28.3644C10.3602 28.5255 10.2454 28.663 10.0992 28.7599C9.95295 28.8569 9.78168 28.9092 9.60624 28.9105C9.48127 28.9128 9.35723 28.8887 9.2422 28.8398C9.12717 28.7909 9.02375 28.7183 8.93869 28.6267C8.85183 28.5345 8.78482 28.4255 8.74181 28.3064C8.6988 28.1872 8.68072 28.0605 8.68867 27.9341L8.69867 27.9354Z" fill="#231F20"/>
<path d="M14.1079 3.19727H23.9536V21.2361H14.1092L14.1079 3.19727Z" fill="#FF5F00"/>
<path d="M14.7327 12.2192C14.727 10.4895 15.1101 8.78066 15.8538 7.21902C16.5975 5.65738 17.6828 4.28291 19.0293 3.19725C16.8167 1.41621 14.0052 0.551626 11.1741 0.781638C8.34306 1.01165 5.70803 2.31873 3.81192 4.4336C1.88972 6.57025 0.826172 9.34263 0.826172 12.2167C0.826172 15.0907 1.88972 17.8631 3.81192 19.9998C5.70825 22.1147 8.34349 23.4218 11.1748 23.6518C14.0061 23.8818 16.8177 23.0172 19.0306 21.2361C17.6842 20.1511 16.599 18.7773 15.8553 17.2163C15.1115 15.6553 14.7283 13.947 14.734 12.2179L14.7327 12.2192Z" fill="#EB001B"/>
<path d="M37.2331 12.2192C37.2411 14.3579 36.6526 16.4566 35.5336 18.2793C34.4147 20.102 32.8097 21.5766 30.8988 22.5375C29.002 23.4784 26.8752 23.8559 24.7704 23.6253C22.6656 23.3946 20.671 22.5655 19.0229 21.2361C20.3655 20.1474 21.4481 18.7727 22.1918 17.2123C22.9354 15.6519 23.3213 13.9452 23.3213 12.2167C23.3213 10.4882 22.9354 8.78143 22.1918 7.22104C21.4481 5.66065 20.3655 4.28595 19.0229 3.19726C20.671 1.86778 22.6657 1.03869 24.7705 0.808263C26.8754 0.577836 29.0022 0.955731 30.8988 1.89716C32.8103 2.85716 34.4159 4.33158 35.535 6.15449C36.654 7.97741 37.2421 10.0765 37.2331 12.2154V12.2192Z" fill="#F79E1B"/>
</svg>
