<svg width="51" height="50" viewBox="0 0 51 50" fill="none" xmlns="http://www.w3.org/2000/svg">
<path d="M20.1363 18.984L14.8196 31.8312H11.3494L8.73167 21.5804C8.70826 21.3421 8.62445 21.1137 8.48817 20.9169C8.3519 20.72 8.16765 20.5611 7.95286 20.4553C6.92307 19.9561 5.835 19.5874 4.71387 19.3577L4.79137 18.9827H10.3768C10.7417 18.9873 11.093 19.1217 11.3679 19.3618C11.6427 19.6018 11.8232 19.9318 11.8769 20.2928L13.2645 27.7134L16.6885 18.984H20.1363ZM33.7323 27.6371C33.746 24.2468 29.1069 24.0593 29.1332 22.5455C29.1332 22.0842 29.577 21.5941 30.5246 21.4691C31.6353 21.3607 32.7545 21.5583 33.761 22.0404L34.3411 19.3215C33.3588 18.9472 32.317 18.7536 31.2659 18.7502C28.0156 18.7502 25.7404 20.5003 25.7217 23.0005C25.6979 24.8469 27.3468 25.8832 28.5969 26.5008C29.8758 27.1258 30.3058 27.5346 30.3008 28.0984C30.2895 28.9584 29.2795 29.3397 28.3356 29.3485C27.1593 29.3743 25.9964 29.0948 24.9604 28.5372L24.3603 31.3511C25.5224 31.8094 26.7615 32.041 28.0106 32.0337C31.4584 32.0337 33.7135 30.3198 33.7248 27.6396L33.7323 27.6371ZM42.2992 31.8262H45.3419L42.688 18.984H39.8853C39.5849 18.9832 39.2912 19.0727 39.0423 19.2407C38.7933 19.4088 38.6005 19.6477 38.4889 19.9265L33.561 31.8312H37.0063L37.6901 29.911H41.9017L42.2992 31.8262ZM38.6364 27.2796L40.3628 22.4567L41.3629 27.2796H38.6377H38.6364ZM24.8279 18.984L22.1127 31.8312H18.8312L21.5451 18.984H24.8266H24.8279Z" fill="#1434CB"/>
</svg>
